<svg width="40" height="45" viewBox="0 0 40 45" fill="none" xmlns="http://www.w3.org/2000/svg">
<path d="M38.0741 9.822L21.7778 0.478575C21.2332 0.164626 20.6216 0 20 0C19.3784 0 18.7668 0.164626 18.2222 0.478575L1.92593 9.822C1.34281 10.1562 0.856302 10.6486 0.517439 11.2475C0.178575 11.8465 -0.000153776 12.5299 9.9274e-08 13.2261L9.9274e-08 31.7733C-0.000153776 32.4695 0.178575 33.153 0.517439 33.7519C0.856302 34.3509 1.34281 34.8433 1.92593 35.1775L18.2222 44.5209C18.7667 44.8352 19.3783 45 20 45C20.6217 45 21.2333 44.8352 21.7778 44.5209L38.0741 35.1775C38.6572 34.8433 39.1437 34.3509 39.4826 33.7519C39.8214 33.153 40.0002 32.4695 40 31.7733V13.2261C40.0002 12.5299 39.8214 11.8465 39.4826 11.2475C39.1437 10.6486 38.6572 10.1562 38.0741 9.822ZM20 4.76526L33.3333 12.4134L29.3648 14.6886L16.0315 7.04244L20 4.76526ZM20 20.0557L6.66667 12.4134L11.4 9.69786L24.7333 17.3421L20 20.0557ZM4.44444 16.446L17.7778 24.0883V38.9598L4.44444 31.3136V16.446ZM22.2222 38.9598V24.0883L26.6667 21.5415V27.1549C26.6667 27.7723 26.9008 28.3643 27.3175 28.8008C27.7343 29.2373 28.2995 29.4826 28.8889 29.4826C29.4783 29.4826 30.0435 29.2373 30.4602 28.8008C30.877 28.3643 31.1111 27.7723 31.1111 27.1549V18.9928L35.5556 16.446V31.3136L22.2222 38.9598Z" fill="white"/>
</svg>
