<svg width="40" height="41" viewBox="0 0 40 41" fill="none" xmlns="http://www.w3.org/2000/svg">
<g clip-path="url(#clip0_98_35)">
<path d="M19.4747 0.109328C19.6407 0.0363896 19.8194 -0.0012207 20 -0.0012207C20.1806 -0.0012207 20.3593 0.0363896 20.5253 0.109328L38.6667 8.07973L20 16.2797L1.33333 8.07973L19.4747 0.109328ZM0 10.4687V31.4333C0 31.98 0.32 32.472 0.808 32.6907L18.6667 40.5353V18.6687L0 10.4687ZM21.3333 18.6687L40 10.4687V31.4333C40.0002 31.701 39.9238 31.9628 39.7801 32.1863C39.6365 32.4098 39.432 32.5852 39.192 32.6907L21.3333 40.5353V18.6687Z" fill="white"/>
</g>
<defs>
<clipPath id="clip0_98_35">
<rect width="40" height="41" fill="white"/>
</clipPath>
</defs>
</svg>
