<svg width="52" height="45" viewBox="0 0 52 45" fill="none" xmlns="http://www.w3.org/2000/svg">
<path d="M9.79313 20.625H22.7931C23.3678 20.625 23.9189 20.4275 24.3252 20.0758C24.7315 19.7242 24.9598 19.2473 24.9598 18.75V7.5C24.9598 7.00272 24.7315 6.52581 24.3252 6.17417C23.9189 5.82254 23.3678 5.625 22.7931 5.625H9.79313C9.2185 5.625 8.6674 5.82254 8.26107 6.17417C7.85474 6.52581 7.62646 7.00272 7.62646 7.5V18.75C7.62646 19.2473 7.85474 19.7242 8.26107 20.0758C8.6674 20.4275 9.2185 20.625 9.79313 20.625ZM31.4598 20.625H44.4598C45.0344 20.625 45.5855 20.4275 45.9919 20.0758C46.3982 19.7242 46.6265 19.2473 46.6265 18.75V7.5C46.6265 7.00272 46.3982 6.52581 45.9919 6.17417C45.5855 5.82254 45.0344 5.625 44.4598 5.625H31.4598C30.8852 5.625 30.3341 5.82254 29.9277 6.17417C29.5214 6.52581 29.2931 7.00272 29.2931 7.5V18.75C29.2931 19.2473 29.5214 19.7242 29.9277 20.0758C30.3341 20.4275 30.8852 20.625 31.4598 20.625ZM9.79313 39.375H22.7931C23.3678 39.375 23.9189 39.1775 24.3252 38.8258C24.7315 38.4742 24.9598 37.9973 24.9598 37.5V26.25C24.9598 25.7527 24.7315 25.2758 24.3252 24.9242C23.9189 24.5725 23.3678 24.375 22.7931 24.375H9.79313C9.2185 24.375 8.6674 24.5725 8.26107 24.9242C7.85474 25.2758 7.62646 25.7527 7.62646 26.25V37.5C7.62646 37.9973 7.85474 38.4742 8.26107 38.8258C8.6674 39.1775 9.2185 39.375 9.79313 39.375ZM37.9598 39.375C42.7395 39.375 46.6265 36.0113 46.6265 31.875C46.6265 27.7387 42.7395 24.375 37.9598 24.375C33.1801 24.375 29.2931 27.7387 29.2931 31.875C29.2931 36.0113 33.1801 39.375 37.9598 39.375Z" fill="#FFF0F0"/>
</svg>
