<svg width="45" height="50" viewBox="0 0 45 50" fill="none" xmlns="http://www.w3.org/2000/svg">
<path d="M40.6406 18.8281C39.6524 16.229 38.2196 13.8677 36.4219 11.875C34.6284 9.87748 32.5032 8.28557 30.1641 7.1875C27.7339 6.04492 25.1587 5.46875 22.5 5.46875C19.8413 5.46875 17.2661 6.04492 14.8359 7.1875C12.4968 8.28557 10.3716 9.87748 8.57812 11.875C6.78036 13.8677 5.34764 16.229 4.35937 18.8281C3.33105 21.5283 2.8125 24.3896 2.8125 27.3438C2.8125 33.8232 5.37451 39.9268 9.83936 44.0967L9.91406 44.165C10.1689 44.3994 10.4897 44.5312 10.8193 44.5312H34.1851C34.5146 44.5312 34.8354 44.3994 35.0903 44.165L35.165 44.0967C39.6255 39.9268 42.1875 33.8232 42.1875 27.3438C42.1875 24.3896 41.6646 21.5283 40.6406 18.8281ZM33.46 40.8203H11.54C9.84198 39.1191 8.48482 37.0402 7.55665 34.7185C6.62847 32.3968 6.15002 29.8842 6.15234 27.3438C6.15234 22.4902 7.85303 17.9297 10.9424 14.502C14.0317 11.0693 18.1362 9.17969 22.5 9.17969C26.8682 9.17969 30.9727 11.0693 34.0576 14.502C37.147 17.9346 38.8477 22.4951 38.8477 27.3438C38.8477 32.5 36.8921 37.3779 33.46 40.8203ZM27.3999 20.5811C27.3338 20.5084 27.2446 20.4676 27.1516 20.4676C27.0586 20.4676 26.9694 20.5084 26.9033 20.5811L23.1899 24.707C22.3682 24.4629 21.4585 24.6973 20.8125 25.415C20.5837 25.6688 20.4022 25.9702 20.2783 26.302C20.1545 26.6338 20.0907 26.9894 20.0907 27.3486C20.0907 27.7078 20.1545 28.0635 20.2783 28.3953C20.4022 28.7271 20.5837 29.0285 20.8125 29.2822C21.0409 29.5365 21.3121 29.7382 21.6107 29.8758C21.9094 30.0134 22.2295 30.0842 22.5527 30.0842C22.876 30.0842 23.1961 30.0134 23.4947 29.8758C23.7933 29.7382 24.0646 29.5365 24.293 29.2822C24.599 28.9432 24.8191 28.5204 24.931 28.0566C25.0429 27.5927 25.0426 27.1043 24.9302 26.6406L28.6436 22.5146C28.7798 22.3633 28.7798 22.1143 28.6436 21.9629L27.3999 20.5811ZM21.5332 15.625H23.4668C23.6602 15.625 23.8184 15.4492 23.8184 15.2344V11.3281C23.8184 11.1133 23.6602 10.9375 23.4668 10.9375H21.5332C21.3398 10.9375 21.1816 11.1133 21.1816 11.3281V15.2344C21.1816 15.4492 21.3398 15.625 21.5332 15.625ZM32.959 26.2695V28.418C32.959 28.6328 33.1172 28.8086 33.3105 28.8086H36.8262C37.0195 28.8086 37.1777 28.6328 37.1777 28.418V26.2695C37.1777 26.0547 37.0195 25.8789 36.8262 25.8789H33.3105C33.1172 25.8789 32.959 26.0547 32.959 26.2695ZM33.5171 16.6406L32.1504 15.1221C32.0843 15.0494 31.9951 15.0086 31.9021 15.0086C31.8091 15.0086 31.7199 15.0494 31.6538 15.1221L29.1665 17.8857C29.1011 17.9592 29.0644 18.0583 29.0644 18.1616C29.0644 18.2649 29.1011 18.3641 29.1665 18.4375L30.5332 19.9561C30.6694 20.1074 30.8936 20.1074 31.0298 19.9561L33.5171 17.1924C33.6533 17.041 33.6533 16.792 33.5171 16.6406ZM13.3638 15.1221C13.2977 15.0494 13.2085 15.0086 13.1155 15.0086C13.0225 15.0086 12.9333 15.0494 12.8672 15.1221L11.5005 16.6406C11.4351 16.714 11.3984 16.8132 11.3984 16.9165C11.3984 17.0198 11.4351 17.119 11.5005 17.1924L13.9878 19.9561C14.124 20.1074 14.3481 20.1074 14.4844 19.9561L15.8511 18.4375C15.9873 18.2861 15.9873 18.0371 15.8511 17.8857L13.3638 15.1221ZM11.5137 25.8789H7.99805C7.80469 25.8789 7.64648 26.0547 7.64648 26.2695V28.418C7.64648 28.6328 7.80469 28.8086 7.99805 28.8086H11.5137C11.707 28.8086 11.8652 28.6328 11.8652 28.418V26.2695C11.8652 26.0547 11.707 25.8789 11.5137 25.8789Z" fill="black"/>
</svg>
