<svg width="50" height="50" viewBox="0 0 50 50" fill="none" xmlns="http://www.w3.org/2000/svg">
<path d="M25 43.75C20.2083 43.75 16.0326 42.1611 12.4729 38.9833C8.91319 35.8056 6.87361 31.8389 6.35417 27.0833H10.625C11.1111 30.6944 12.7174 33.6806 15.4437 36.0417C18.1701 38.4028 21.3556 39.5833 25 39.5833C29.0625 39.5833 32.509 38.1681 35.3396 35.3375C38.1701 32.5069 39.5847 29.0611 39.5833 25C39.5833 20.9375 38.1681 17.491 35.3375 14.6604C32.5069 11.8299 29.0611 10.4153 25 10.4167C22.6042 10.4167 20.3646 10.9722 18.2812 12.0833C16.1979 13.1944 14.4444 14.7222 13.0208 16.6667H18.75V20.8333H6.25V8.33333H10.4167V13.2292C12.1875 11.0069 14.3493 9.28819 16.9021 8.07292C19.4549 6.85764 22.1542 6.25 25 6.25C27.6042 6.25 30.0437 6.74514 32.3187 7.73542C34.5937 8.72569 36.5729 10.0618 38.2563 11.7437C39.9396 13.4285 41.2764 15.4076 42.2667 17.6813C43.2569 19.9549 43.7514 22.3944 43.75 25C43.75 27.6042 43.2549 30.0437 42.2646 32.3187C41.2743 34.5937 39.9382 36.5729 38.2563 38.2563C36.5715 39.9396 34.5924 41.2764 32.3187 42.2667C30.0451 43.2569 27.6056 43.7514 25 43.75ZM30.8333 33.75L22.9167 25.8333V14.5833H27.0833V24.1667L33.75 30.8333L30.8333 33.75Z" fill="white"/>
</svg>
